<?xml version="1.0" encoding="UTF-8"?>
<svg id="Layer_2" data-name="Layer 2" xmlns="http://www.w3.org/2000/svg" viewBox="0 0 182.75 63">
  <defs>
    <style>
      .cls-1 {
        fill: #466efa;
      }

      .cls-1, .cls-2, .cls-3, .cls-4 {
        stroke-width: 0px;
      }

      .cls-2 {
        fill: #f8fafe;
      }

      .cls-3 {
        fill: #fff;
      }

      .cls-4 {
        fill: #fc851f;
      }
    </style>
  </defs>
  <g id="Layer_1-2" data-name="Layer 1">
    <g>
      <g>
        <path class="cls-2" d="m80.78,46.36h19.04v5.82h-26.33V10.24h7.29v36.12Z"/>
        <path class="cls-2" d="m123.21,49.13c-2.05,2.42-4.97,3.63-8.76,3.63-3.38,0-5.94-.99-7.68-2.97-1.74-1.98-2.61-4.84-2.61-8.58v-20.19h7v20.1c0,3.96,1.64,5.93,4.93,5.93s5.69-1.22,6.88-3.66v-22.38h7v31.16h-6.6l-.17-3.05Z"/>
        <path class="cls-2" d="m153.42,27.41c-.92-.15-1.87-.23-2.85-.23-3.21,0-5.37,1.23-6.48,3.69v21.31h-7v-31.16h6.68l.17,3.49c1.69-2.71,4.03-4.06,7.03-4.06,1,0,1.82.13,2.48.4l-.03,6.57Z"/>
        <path class="cls-2" d="m175.6,52.18c-.31-.59-.58-1.56-.81-2.91-2.23,2.32-4.95,3.48-8.18,3.48s-5.68-.89-7.66-2.68c-1.98-1.79-2.97-3.99-2.97-6.63,0-3.32,1.23-5.87,3.7-7.65s6-2.66,10.58-2.66h4.29v-2.04c0-1.61-.45-2.9-1.35-3.87-.9-.97-2.28-1.45-4.12-1.45-1.6,0-2.9.4-3.92,1.2-1.02.8-1.53,1.81-1.53,3.04h-7c0-1.71.57-3.31,1.7-4.8,1.13-1.49,2.67-2.65,4.62-3.5,1.95-.85,4.12-1.27,6.52-1.27,3.65,0,6.56.92,8.73,2.75s3.28,4.41,3.34,7.73v14.06c0,2.8.39,5.04,1.18,6.71v.49h-7.14Zm-7.69-5.04c1.38,0,2.68-.34,3.9-1.01s2.14-1.57,2.75-2.71v-5.88h-3.77c-2.59,0-4.54.45-5.85,1.35-1.31.9-1.96,2.18-1.96,3.83,0,1.34.45,2.41,1.34,3.21.89.8,2.09,1.2,3.59,1.2Z"/>
      </g>
      <g>
        <path class="cls-3" d="m54.25,0H8.75C3.92,0,0,3.92,0,8.75v45.5c0,4.83,3.92,8.75,8.75,8.75h45.5c4.83,0,8.75-3.92,8.75-8.75V8.75c0-4.83-3.92-8.75-8.75-8.75Z"/>
        <path class="cls-4" d="m24.46,10.09c1.84,1.84,2.98,4.38,2.98,7.19v.31c0,2.73-1.05,5.31-2.8,7.41-1.47,1.76-2.36,4.03-2.36,6.5s.93,4.85,2.46,6.63c1.71,1.99,2.7,4.5,2.7,7.13v.15c0,5.13-3.65,9.67-8.7,10.37-3.38.47-6.5-.72-8.65-2.88-1.84-1.84-2.98-4.38-2.98-7.18v-.3c0-2.73,0-25.11,0-27.84v-.3c0-5.61,4.55-10.17,10.17-10.17,2.81,0,5.35,1.14,7.18,2.98Z"/>
        <path class="cls-1" d="m10.09,38.54c1.84-1.84,4.38-2.98,7.19-2.98h.31c2.73,0,5.31,1.05,7.41,2.8,1.76,1.47,4.03,2.36,6.5,2.36s4.85-.93,6.63-2.46c1.99-1.71,4.5-2.7,7.13-2.7h.15c5.13,0,9.67,3.65,10.37,8.7.47,3.38-.72,6.5-2.88,8.65-1.84,1.84-4.38,2.98-7.18,2.98h-.3c-2.73,0-25.11,0-27.84,0h-.3c-5.61,0-10.17-4.55-10.17-10.17,0-2.81,1.14-5.35,2.98-7.18Z"/>
      </g>
    </g>
  </g>
</svg>